 http://img821.imageshack.us/img821/5184/a1sj9axuy7l.jpg

Country.......: USA
Genre.........: Drama
Date release..: 07.01.2011 [World]
Director......: Gregory Hatanaka
Writers.......: Gregory Hatanaka, Tony T.L. Young
Duration......: 129 min.
More..........: http://www.imdb.com/title/tt1303773
Trailer.......:

Pilot :
The lives and obsessions of a group of people run head on into each other during one summer in LA. 

Cats :
Silvia Suvadova   	 ...  	Katarina
Jesse Hlubik 	... 	Ondrej
Nick Mancuso 	... 	Pietro
Barry O Rourke 	... 	Bolo O Braonain
Andrea Harrison 	... 	Kylie
Garret Sato 	... 	Liam
Bogdan Szumilas 	... 	Dr. Sobeslav
Anastasia Fontaines 	... 	Ms. Dora
Martin William Harris 	... 	Zbigniew
Tiffany Bowyer 	... 	Helena
Shelli Merrill 	... 	Annette
Edwin A. Santos 	... 	Toru Von Karajan
Matthew Mahaney 	... 	Detective Ichikawa
Mark Motyl 	... 	Detective Simek
Luke Y. Thompson 	... 	Facemask | Robot Harmon 

Data Technical :
!!! SAMPLE !!!
Audio.....: English
Subtitles.: English .sub
[ CD1 ]
Format                           : AVI
Format/Info                      : Audio Video Interleave
File size                        : 700 MiB
Duration                         : 1h 1mn
Overall bit rate                 : 1 602 Kbps
Writing application              : VirtualDubMod 1.5.10.2 (build 2540/release)
Writing library                  : VirtualDubMod build 2540/release
Video
ID                               : 0
Format                           : MPEG-4 Visual
Format profile                   : Advanced Simple@L5
Format settings, BVOP            : Yes
Format settings, QPel            : No
Format settings, GMC             : No warppoints
Format settings, Matrix          : Default (H.263)
Codec ID                         : XVID
Codec ID/Hint                    : XviD
Duration                         : 1h 1mn
Bit rate                         : 1 145 Kbps
Width                            : 640 pixels
Height                           : 272 pixels
Display aspect ratio             : 2.35:1
Frame rate                       : 23.976 fps
Color space                      : YUV
Chroma subsampling               : 4:2:0
Bit depth                        : 8 bits
Scan type                        : Progressive
Bits/(Pixel*Frame)               : 0.274
Stream size                      : 500 MiB (71%)
Writing library                  : XviD 1.2.1 (UTC 2008-12-04)
Audio
ID                               : 1
Format                           : AC-3
Format/Info                      : Audio Coding 3
Mode extension                   : CM (complete main)
Codec ID                         : 2000
Duration                         : 1h 1mn
Bit rate mode                    : Constant
Bit rate                         : 448 Kbps
Channel(s)                       : 6 channels
Channel positions                : Front: L C R, Side: L R, LFE
Sampling rate                    : 48.0 KHz
Bit depth                        : 16 bits
Stream size                      : 196 MiB (28%)
Alignment                        : Split accross interleaves
Interleave, duration             : 42 ms (1.00 video frame)
Interleave, preload duration     : 500 ms
[ CD2 ]
Format                           : AVI
Format/Info                      : Audio Video Interleave
File size                        : 701 MiB
Duration                         : 1h 7mn
Overall bit rate                 : 1 442 Kbps
Writing application              : VirtualDubMod 1.5.10.2 (build 2540/release)
Writing library                  : VirtualDubMod build 2540/release
Video
ID                               : 0
Format                           : MPEG-4 Visual
Format profile                   : Advanced Simple@L5
Format settings, BVOP            : Yes
Format settings, QPel            : No
Format settings, GMC             : No warppoints
Format settings, Matrix          : Default (H.263)
Codec ID                         : XVID
Codec ID/Hint                    : XviD
Duration                         : 1h 7mn
Bit rate                         : 985 Kbps
Width                            : 640 pixels
Height                           : 272 pixels
Display aspect ratio             : 2.35:1
Frame rate                       : 23.976 fps
Color space                      : YUV
Chroma subsampling               : 4:2:0
Bit depth                        : 8 bits
Scan type                        : Progressive
Bits/(Pixel*Frame)               : 0.236
Stream size                      : 479 MiB (68%)
Writing library                  : XviD 1.2.1 (UTC 2008-12-04)
Audio
ID                               : 1
Format                           : AC-3
Format/Info                      : Audio Coding 3
Mode extension                   : CM (complete main)
Codec ID                         : 2000
Duration                         : 1h 7mn
Bit rate mode                    : Constant
Bit rate                         : 448 Kbps
Channel(s)                       : 6 channels
Channel positions                : Front: L C R, Side: L R, LFE
Sampling rate                    : 48.0 KHz
Bit depth                        : 16 bits
Video delay                      : 28ms
Stream size                      : 217 MiB (31%)
Alignment                        : Split accross interleaves
Interleave, duration             : 42 ms (1.00 video frame)
Interleave, preload duration     : 500 ms

Screen : 
http://img837.imageshack.us/img837/6089/violentblue2011s1.jpg 
http://img705.imageshack.us/img705/9386/violentblue2011s2.jpg 
http://img851.imageshack.us/img851/3784/violentblue2011s3.jpg 
http://img848.imageshack.us/img848/6472/violentblue2011s4.jpg 
http://img35.imageshack.us/img35/2339/violentblue2011s5.jpg